<?xml version="1.0" encoding="utf-8"?>
<!-- Generator: Adobe Illustrator 26.2.1, SVG Export Plug-In . SVG Version: 6.00 Build 0)  -->
<svg version="1.1" id="Layer_1" xmlns="http://www.w3.org/2000/svg" xmlns:xlink="http://www.w3.org/1999/xlink" x="0px" y="0px"
	 viewBox="0 0 50 50" style="enable-background:new 0 0 50 50;" xml:space="preserve">
<style type="text/css">
	.st0{fill:#020203;}
</style>
<g id="Layer_2_00000078017151866186789420000017661937393225341830_">
</g>
<g id="Meat">
	<path class="st0" d="M20.76,7.99c-16.01,0-17.15,12.5-17.15,16.22v6.24c0,3.72,2.79,11.57,13.12,11.57c8.06,0,9.4-5.89,17.56-5.89
		c3.31,0,4.65,1.55,7.85,1.55s4.24-2.58,4.24-4.96v-6.24C46.39,18.52,36.78,7.99,20.76,7.99z M27.12,12.45
		c0.52-0.52,1.37-0.52,1.89,0c0,0,0,0,0,0l11.03,11.03c0.52,0.52,0.52,1.37,0,1.89c-0.52,0.52-1.37,0.52-1.89,0L27.12,14.34
		C26.6,13.81,26.6,12.97,27.12,12.45C27.12,12.45,27.12,12.45,27.12,12.45z M13.82,12.48c0.52-0.52,1.37-0.52,1.89,0c0,0,0,0,0,0
		L27.52,24.3c0.52,0.52,0.52,1.37,0,1.89s-1.37,0.52-1.89,0L13.82,14.37C13.3,13.85,13.3,13.01,13.82,12.48
		C13.82,12.48,13.82,12.48,13.82,12.48L13.82,12.48z M8.15,20.16c0.52-0.52,1.37-0.52,1.89,0c0,0,0,0,0,0l8.44,8.44
		c0.52,0.52,0.52,1.37,0,1.89s-1.37,0.52-1.89,0l-8.44-8.44C7.63,21.53,7.63,20.68,8.15,20.16C8.15,20.16,8.15,20.16,8.15,20.16z
		 M42.99,32.72c-0.28,0.03-0.56,0.05-0.84,0.05c-1.81,0-3.12-0.44-4.29-0.84c-1.09-0.37-2.12-0.71-3.56-0.71
		c-3.71,0-5.86,1.34-8.14,2.76c-2.47,1.54-5.03,3.13-9.43,3.13c-4.39,0-7.95-1.31-10.57-3.89c-0.53-0.52-0.54-1.36-0.02-1.89
		c0.52-0.53,1.36-0.54,1.89-0.02c0,0,0.01,0.01,0.01,0.01c2.1,2.07,5.02,3.12,8.69,3.12c3.63,0,5.76-1.33,8.01-2.73
		c2.38-1.48,5.07-3.16,9.55-3.16c1.88,0,3.23,0.45,4.42,0.85c1.11,0.37,2.06,0.7,3.43,0.7c0.17,0,0.34-0.01,0.51-0.03
		c0.73-0.09,1.4,0.43,1.49,1.16C44.24,31.96,43.72,32.63,42.99,32.72L42.99,32.72z"/>
</g>
</svg>
