<?xml version="1.0" encoding="utf-8"?>
<!-- Generator: Adobe Illustrator 26.2.1, SVG Export Plug-In . SVG Version: 6.00 Build 0)  -->
<svg version="1.1" id="Layer_1" xmlns="http://www.w3.org/2000/svg" xmlns:xlink="http://www.w3.org/1999/xlink" x="0px" y="0px"
	 viewBox="0 0 50 50" style="enable-background:new 0 0 50 50;" xml:space="preserve">
<style type="text/css">
	.st0{fill:#020203;}
</style>
<path class="st0" d="M17.05,8.78l-0.51,0.1C6.07,11.21,3.99,21.48,3.99,21.48l-0.05,0.15v19.59h42.11V31.5h-1.62
	c-0.92,0-1.62-0.7-1.62-1.62c0-0.92,0.7-1.62,1.62-1.62h1.62v-7.54l-1.01-0.46L17.51,8.93L17.05,8.78z M16.85,12.22l4.5,1.87
	c-0.71,0.3-1.21,0.71-1.21,1.21c0,0.89,1.45,1.62,3.24,1.62c1.23,0,2.28-0.35,2.83-0.86l9.97,4.1H7.79
	C8.77,17.77,11.18,13.69,16.85,12.22z M7.18,23.41h5.01c-0.09,0.25-0.15,0.53-0.15,0.81c0,1.34,1.09,2.43,2.43,2.43
	s2.43-1.09,2.43-2.43c0-0.28-0.06-0.56-0.15-0.81h26.07v2.28c-1.8,0.71-3.24,2.16-3.24,4.2s1.44,3.49,3.24,4.2v3.9H22.92
	c0.28-0.47,0.46-1.03,0.46-1.62c0-1.79-1.45-3.24-3.24-3.24c-1.79,0-3.24,1.45-3.24,3.24c0,0.59,0.18,1.15,0.46,1.62H7.18V23.41z
	 M30.67,26.64c-1.34,0-2.43,1.09-2.43,2.43c0,1.34,1.09,2.43,2.43,2.43s2.43-1.09,2.43-2.43C33.1,27.73,32.01,26.64,30.67,26.64z"/>
</svg>
