<?xml version="1.0" encoding="utf-8"?>
<!-- Generator: Adobe Illustrator 26.2.1, SVG Export Plug-In . SVG Version: 6.00 Build 0)  -->
<svg version="1.1" id="Layer_1" xmlns="http://www.w3.org/2000/svg" xmlns:xlink="http://www.w3.org/1999/xlink" x="0px" y="0px"
	 viewBox="0 0 50 50" style="enable-background:new 0 0 50 50;" xml:space="preserve">
<style type="text/css">
	.st0{fill:#020203;}
</style>
<g id="Layer_2_00000078017151866186789420000017661937393225341830_">
</g>
<path class="st0" d="M43.86,34.78c-1.29-1.29-3.3-1.58-4.88-0.86l-7.32-7.18c1.29-2.87,1.15-6.17-0.43-8.47L23.77,7.8
	c-1.15-1.72-3.01-2.73-5.31-2.87c-2.87-0.29-5.74,1-8.04,3.16l-2.15,2.44c-2.3,2.15-3.44,4.88-3.3,7.61c0.14,2.15,1,4.02,2.58,5.31
	l9.76,8.18c1.29,1.15,3.01,1.58,4.74,1.58c1.58,0,3.16-0.43,4.74-1.29l7.03,7.03c-0.72,1.58-0.43,3.59,0.86,4.88
	c0.86,0.86,1.87,1.29,3.01,1.29l0,0c1.15,0,2.15-0.43,3.01-1.29c0.57-0.57,0.86-1.15,1.15-2.01c0.72-0.14,1.44-0.57,1.87-1.15
	c0.86-0.86,1.29-1.87,1.29-3.01C45.16,36.64,44.72,35.5,43.86,34.78z M19.18,29.33l-9.9-8.04c-1.15-1-1.44-2.3-1.44-3.16
	c-0.14-2.01,0.86-4.02,2.44-5.6l2.3-2.3c1.44-1.58,3.44-2.44,5.31-2.44c0.14,0,0.29,0,0.43,0c1,0.14,2.3,0.43,3.16,1.72L29.08,20
	c1.15,1.58,1.15,4.02-0.14,6.31l0,0c-0.29,0.57-0.86,1.15-1.29,1.72c-0.43,0.43-0.72,0.72-1.15,1
	C23.77,30.62,20.9,30.76,19.18,29.33z M41.85,38.8L41.85,38.8c-0.43,0.43-0.86,0.43-1.15,0.43c-0.43,0-0.86,0.14-1.15,0.43
	c-0.29,0.29-0.43,0.72-0.43,1.15c0,0.29,0,0.72-0.43,1.15c-0.29,0.29-0.57,0.43-1,0.43l0,0c-0.43,0-0.72-0.14-1-0.43
	c-0.57-0.57-0.57-1.44,0-2.01s0.57-1.44,0-2.01l-7.61-7.61c0.14-0.14,0.14-0.14,0.29-0.29c0.29-0.29,0.57-0.57,0.72-0.86l7.61,7.61
	c0.57,0.57,1.44,0.57,2.01,0s1.44-0.57,2.01,0c0.29,0.29,0.43,0.57,0.43,1C42.29,38.08,42.14,38.51,41.85,38.8z"/>
</svg>
