<?xml version="1.0" encoding="utf-8"?>
<!-- Generator: Adobe Illustrator 26.2.1, SVG Export Plug-In . SVG Version: 6.00 Build 0)  -->
<svg version="1.1" id="Layer_1" xmlns="http://www.w3.org/2000/svg" xmlns:xlink="http://www.w3.org/1999/xlink" x="0px" y="0px"
	 viewBox="0 0 50 50" style="enable-background:new 0 0 50 50;" xml:space="preserve">
<style type="text/css">
	.st0{fill-rule:evenodd;clip-rule:evenodd;fill:#020203;}
</style>
<g id="Layer_8">
	<path class="st0" d="M5.94,21.03C16.66,19.1,30,30.09,36.81,37.24c-6.62,6.35-17.23,6.24-23.72-0.24
		c-3.69-3.69-5.16-8.24-4.92-13.32C7.44,22.78,6.71,21.89,5.94,21.03 M26.92,25.27c4.75-2.91,11.52-5.89,17.32-4.82l-2.32,2.64
		c0.35,4.55-0.58,8.55-3.39,12.22C34.68,31.28,30.76,27.91,26.92,25.27z M9.87,11.57c6.16,0.75,13,6.28,17.06,10.69
		c-0.79,0.45-1.59,0.94-2.4,1.46c-4.46-2.75-9.76-5.12-15.02-5.44c0.55-1.25,1.19-2.28,1.94-3.4L9.87,11.57z M29.29,21
		c-0.68-0.76-1.38-1.49-2.09-2.19c3.49-3.03,8.54-6.42,13.25-6.98l-1.6,3.34c0.55,0.83,1.06,1.63,1.5,2.53
		C36.52,17.97,32.69,19.31,29.29,21z M37.34,9.86c-7.1-5.76-17.09-5.83-24.3-0.23c-2.8-0.85-4.44-0.76-7.21-0.53l2.67,5.57
		c-0.71,1.15-1.32,2.38-1.79,3.65c-2.09,0.2-3.58,0.8-5.49,1.51c1.5,1.54,2.95,3.04,4.32,4.71c-0.12,5.37,1.91,10.48,5.71,14.28
		c7.59,7.59,20.05,7.59,27.64,0c3.98-3.98,5.94-9.24,5.69-14.85l4.2-4.79c-1.96-0.73-3.44-1.31-5.59-1.49
		c-0.39-0.94-0.85-1.86-1.38-2.73l2.68-5.61C41.75,9.13,40.1,9.03,37.34,9.86z M25.3,17.03c-2.78-2.47-5.96-4.74-9.36-6.29
		c5.69-3.62,12.92-3.56,18.52,0.2C31.16,12.43,28.02,14.64,25.3,17.03z"/>
</g>
<g id="Layer_2_00000078017151866186789420000017661937393225341830_">
</g>
</svg>
