<?xml version="1.0" encoding="utf-8"?>
<!-- Generator: Adobe Illustrator 26.2.1, SVG Export Plug-In . SVG Version: 6.00 Build 0)  -->
<svg version="1.1" id="Layer_1" xmlns="http://www.w3.org/2000/svg" xmlns:xlink="http://www.w3.org/1999/xlink" x="0px" y="0px"
	 viewBox="0 0 50 50" style="enable-background:new 0 0 50 50;" xml:space="preserve">
<style type="text/css">
	.st0{fill-rule:evenodd;clip-rule:evenodd;fill:#020203;}
</style>
<g id="Layer_20">
	<path class="st0" d="M16.82,15.19c2.3,0.75,4.84,1.06,7.43,1.38c4.55,0.56,9.26,1.14,12.37,4.2c2.5,2.45,4.05,5.76,3.93,9.31
		c-0.18,5.21-3.81,9.72-7.61,13c-4.75,1.66-10.46,2.57-15.09,0.1c-3.13-1.67-5.21-4.66-6.09-8.05c-1.1-4.23,0.76-8.6,2.55-12.82
		C15.31,19.91,16.31,17.55,16.82,15.19 M14.51,11.2c-0.09,0.94-0.15,1.92-0.31,2.85c-1.39-2.39-2.65-4.66-3.63-8.35
		c2.45,1.75,4.56,4.17,6.34,6.58C16.11,11.97,15.3,11.56,14.51,11.2z M30.77,38.84c-5.72,1.85-12.63,2.16-14.47-4.9l-2.38,0.62
		c2.24,8.6,10.43,8.93,17.6,6.62L30.77,38.84z M24.58,13.8c-1.21-0.15-2.4-0.3-3.55-0.49c-1.68-2.56-3.7-5.27-6.05-7.54
		c-2.8-2.7-4.91-3.7-8.3-5.22c0.57,3.05,1.07,5.93,2.2,8.87c1.06,2.76,2.44,5.09,4.27,8.34c-0.42,1.14-0.91,2.29-1.41,3.46
		c-1.97,4.64-4.01,9.45-2.68,14.59c1.08,4.16,3.64,7.76,7.48,9.81c3.32,1.77,7.73,2.46,13.38,1.2l-0.34,2.19l2.75,0.43l0.53-3.41
		l0.14-0.04l1.46,2.53l2.41-1.4l-1.46-2.53l0.11-0.1l3.22,1.25l1-2.59l-2.06-0.8c3.91-4.26,5.52-8.43,5.65-12.19
		c0.15-4.31-1.71-8.38-4.76-11.38C34.77,15.06,29.59,14.42,24.58,13.8z"/>
</g>
</svg>
