<?xml version="1.0" encoding="utf-8"?>
<!-- Generator: Adobe Illustrator 26.2.1, SVG Export Plug-In . SVG Version: 6.00 Build 0)  -->
<svg version="1.1" id="Layer_1" xmlns="http://www.w3.org/2000/svg" xmlns:xlink="http://www.w3.org/1999/xlink" x="0px" y="0px"
	 viewBox="0 0 50 50" style="enable-background:new 0 0 50 50;" xml:space="preserve">
<style type="text/css">
	.st0{fill:#020203;}
	.st1{fill:#010202;}
	.st2{fill:#020203;stroke:#010202;stroke-width:0.5;stroke-miterlimit:10;}
</style>
<g id="Layer_2_00000078017151866186789420000017661937393225341830_">
</g>
<g id="Layer_2_00000047773660422131968270000011467888002781026198_">
</g>
<g>
	<path class="st0" d="M12.79,48.32c-1.8,0-3.51-0.53-4.93-1.53c-1.95-1.33-2.84-3.61-2.52-6.43c0.23-2.16,1.05-4.69,2.59-7.96
		c-0.13-0.5-0.01-1.2,0.29-1.74c0.06-0.12,0.14-0.25,0.21-0.36c0.18-0.26,0.42-0.5,0.7-0.7c-0.03-0.31-0.03-0.89,0.31-1.43
		c0.05-0.09,0.12-0.19,0.18-0.28c0.25-0.37,0.6-0.69,0.94-0.88c0.11-0.05,0.19-0.09,0.26-0.12c0.97-1.71,2.35-3.95,3.69-6.13
		c1.15-1.87,2.24-3.64,3.01-4.97l0.01-0.24c0-0.2,0.05-0.93,0.6-1.73l0.07-0.11c0.32-0.52,0.85-0.88,1.25-1.02
		c1.6-2.16,2.82-3.66,4.61-5.31c0-0.27,0.06-0.68,0.32-0.97c0.19-0.28,0.45-0.48,0.67-0.64c0.34-0.29,0.85-0.48,1.33-0.48
		c0.08,0,0.17,0.01,0.25,0.02c2.41-1.68,4.86-2.57,7.08-2.57c1.2,0,2.32,0.25,3.35,0.75l0.38,0.18l0.97-1.39
		c0.24-0.34,0.63-0.55,1.05-0.55c0.26,0,0.51,0.08,0.73,0.23c0.28,0.19,0.47,0.49,0.53,0.82c0.06,0.34-0.01,0.68-0.21,0.96
		l-0.68,0.99c0.4,0.16,0.82,0.27,1.21,0.33c0.02-0.38,0.14-0.75,0.36-1.06c0.53-0.69,1.25-1.09,1.94-1.09c0.3,0,0.59,0.07,0.86,0.22
		c0.52,0.35,0.69,1.05,0.41,1.72c-0.08,0.22-0.19,0.43-0.32,0.61c-0.27,0.35-0.6,0.62-0.99,0.82c0.1,0.08,0.21,0.17,0.34,0.26
		c0.2,0.14,0.45,0.29,0.73,0.44c0.37,0.2,0.51,0.67,0.31,1.04c-0.13,0.25-0.39,0.4-0.67,0.4c-0.13,0-0.25-0.03-0.36-0.09
		C43.3,8.16,43,7.98,42.74,7.81c-0.5-0.35-0.91-0.74-1.2-1.15c-0.15,0-0.3-0.01-0.44-0.03c0.13,0.28,0.24,0.56,0.3,0.86
		c0.42,1.84,0.37,3.66-0.17,5.7c0.24,0.5,0.24,1.19-0.01,1.72c-0.14,0.37-0.28,0.66-0.44,0.9c-0.16,0.3-0.49,0.51-0.68,0.62
		c-1.26,3.01-3.33,6.89-6.91,12.93l0.01,0.04c0.17,0.54,0.07,1.45-0.54,2.25c-0.31,0.46-0.72,0.83-1.16,1.02
		c-0.15,0.07-0.28,0.11-0.38,0.14c-0.79,1.3-1.58,2.52-2.36,3.64c-1.13,1.62-2.27,3.1-3.39,4.4l-0.01,0.02
		c-0.01,0.03-0.02,0.08-0.04,0.14c-0.07,0.27-0.19,0.71-0.51,1.27c-0.07,0.11-0.15,0.2-0.23,0.29c-0.57,0.51-1.06,0.63-1.36,0.7
		c-0.07,0.02-0.16,0.04-0.18,0.05l0,0C19.64,46.59,16.09,48.32,12.79,48.32z M10.46,31.92c0.02,0.07,0.04,0.15,0.06,0.26
		c0.07,0.31,0,0.76-0.16,1.07c-1.46,3.03-2.3,5.52-2.48,7.39c-0.18,2.03,0.23,3.21,1.42,4.06c1.08,0.73,2.27,1.09,3.53,1.09
		c2.56,0,5.42-1.48,8.52-4.38c0.56-0.45,1.01-0.56,1.29-0.62c0.03-0.01,0.07-0.02,0.11-0.03c0-0.01,0-0.02,0.01-0.02
		c0.07-0.26,0.19-0.75,0.54-1.33c0.06-0.08,0.11-0.15,0.17-0.22c1.07-1.23,2.15-2.63,3.22-4.17c0.79-1.15,1.61-2.41,2.41-3.74
		c0.02-0.03,0.04-0.07,0.07-0.11c0.42-0.59,1.01-0.73,1.2-0.77l0.11-0.04c-0.01,0,0.03-0.06,0.12-0.17c0.07-0.1,0.11-0.17,0.12-0.21
		c-0.1-0.27-0.29-0.87,0.1-1.58c3.73-6.29,5.92-10.4,7.1-13.33c0.05-0.12,0.1-0.22,0.17-0.32c0.15-0.24,0.44-0.44,0.69-0.54
		c-0.17-0.32-0.29-0.86-0.12-1.2c0.64-2.19,0.58-3.51,0.27-4.93c-0.1-0.43-0.39-0.8-0.94-1.19c-0.46-0.32-1.04-0.6-1.61-0.86
		l-0.43-0.2c-0.67-0.33-1.42-0.49-2.23-0.49c-1.83,0-3.96,0.86-6.15,2.49c-0.18,0.23-0.63,0.26-0.81,0.26c-0.01,0-0.02,0-0.02,0
		c-0.03,0.17-0.1,0.38-0.23,0.54c-0.06,0.08-0.14,0.17-0.23,0.26c-2.12,1.87-3.38,3.5-4.93,5.6c-0.28,0.41-0.76,0.59-0.96,0.64
		l-0.02,0.02l-0.01,0c-0.01,0.01-0.02,0.03-0.04,0.06c-0.2,0.33-0.21,0.37-0.21,0.45l-0.26,0.12l0.25,0c0,0.23-0.01,0.77-0.33,1.3
		c-0.8,1.38-1.91,3.2-3.1,5.12c-1.36,2.22-2.78,4.51-3.71,6.16c-0.03,0.06-0.07,0.11-0.1,0.17c-0.23,0.34-0.57,0.59-1.02,0.75
		c-0.03,0.01-0.05,0.04-0.11,0.11c-0.01,0.01-0.01,0.02-0.02,0.03c0.09,0.24,0.22,0.67-0.06,1.34c-0.04,0.09-0.08,0.15-0.12,0.21
		c-0.49,0.54-0.76,0.68-0.9,0.75l-0.33,0.02l0.22,0.11C10.48,31.87,10.47,31.89,10.46,31.92z M43.06,4.53
		c-0.17,0.08-0.33,0.21-0.42,0.34c-0.01,0.02-0.03,0.05-0.04,0.07c0.18-0.08,0.32-0.2,0.42-0.34C43.03,4.58,43.05,4.55,43.06,4.53z"
		/>
	<path class="st1" d="M39.45,1.99c0.2,0,0.41,0.06,0.59,0.18c0.47,0.32,0.58,0.96,0.26,1.43l-0.86,1.24
		c0.53,0.24,1.16,0.43,1.76,0.5c0.03,0,0.06,0.01,0.09,0.01c-0.05-0.44,0.06-0.86,0.3-1.21c0.45-0.57,1.08-0.98,1.73-0.98
		c0.25,0,0.5,0.06,0.74,0.19c0.44,0.3,0.51,0.91,0.3,1.4c-0.08,0.21-0.17,0.4-0.29,0.57c-0.34,0.44-0.77,0.72-1.24,0.89
		c0.17,0.16,0.38,0.34,0.64,0.54c0.22,0.15,0.47,0.31,0.76,0.46c0.25,0.14,0.34,0.45,0.21,0.7c-0.09,0.17-0.27,0.27-0.45,0.27
		c-0.08,0-0.17-0.02-0.25-0.06c-0.32-0.17-0.6-0.35-0.86-0.52c-0.55-0.38-0.94-0.79-1.21-1.19c-0.02,0-0.03,0-0.05,0
		c-0.33,0-0.67-0.04-1-0.1c0.24,0.36,0.42,0.77,0.53,1.24c0.39,1.68,0.41,3.45-0.19,5.67c0.26,0.45,0.25,1.12,0.03,1.59
		c-0.13,0.35-0.26,0.63-0.42,0.87c-0.14,0.25-0.42,0.45-0.67,0.58c-1.29,3.1-3.48,7.16-6.98,13.08c0.01,0.04,0.02,0.08,0.04,0.14
		c0.15,0.5,0.04,1.33-0.49,2.03c-0.31,0.46-0.7,0.78-1.06,0.95c-0.19,0.08-0.34,0.13-0.44,0.15c-0.81,1.34-1.61,2.57-2.4,3.71
		c-1.15,1.66-2.27,3.11-3.37,4.37l0,0l-0.01,0.01c-0.1,0.04-0.1,0.63-0.58,1.45c-0.06,0.08-0.12,0.16-0.2,0.24
		c-0.71,0.64-1.31,0.58-1.5,0.71l0-0.01c-3.69,3.57-7.19,4.98-10.13,4.98c-1.84,0-3.47-0.56-4.79-1.48l-0.01-0.01l0,0
		c-2.05-1.4-2.68-3.75-2.4-6.19c0.25-2.41,1.26-5.1,2.61-7.96c-0.13-0.39-0.08-1.06,0.25-1.64c0.06-0.12,0.13-0.24,0.2-0.34
		c0.25-0.36,0.55-0.59,0.76-0.72c-0.07-0.35-0.05-0.93,0.25-1.42c0.06-0.1,0.11-0.18,0.17-0.27c0.25-0.37,0.57-0.65,0.86-0.8
		c0.15-0.07,0.25-0.12,0.32-0.14c1.79-3.17,5.09-8.3,6.76-11.21c0.02-0.05,0,0.09,0.02-0.32c0.01-0.38,0.14-0.99,0.55-1.6l0,0
		c0.02-0.04,0.05-0.07,0.07-0.11c0.33-0.53,0.87-0.85,1.19-0.94c1.53-2.08,2.81-3.68,4.71-5.41c-0.02-0.31,0.04-0.68,0.25-0.91
		c0.17-0.24,0.38-0.42,0.63-0.6c0.3-0.25,0.74-0.43,1.18-0.43c0.1,0,0.21,0.01,0.31,0.03C29.12,3.86,31.53,3,33.7,3
		c1.15,0,2.24,0.24,3.24,0.72C37.11,3.81,37.31,3.9,37.52,4l1.09-1.57C38.8,2.15,39.12,1.99,39.45,1.99 M42.28,5.31
		c0.42-0.09,0.75-0.28,0.94-0.57c0.06-0.09,0.12-0.2,0.17-0.33c0.04-0.1,0.05-0.17,0.05-0.21c-0.02,0-0.05-0.01-0.09-0.01
		c-0.07,0-0.16,0.01-0.28,0.06c-0.24,0.08-0.5,0.27-0.64,0.48C42.34,4.89,42.26,5.08,42.28,5.31 M26.74,7.81
		c-0.09,0-0.17-0.01-0.25-0.02c0,0.22-0.06,0.48-0.2,0.66c-0.07,0.09-0.14,0.17-0.2,0.23l0,0c-2.05,1.81-3.27,3.34-4.96,5.64
		c-0.27,0.39-0.76,0.54-0.86,0.55c-0.02,0-0.02-0.01-0.03-0.01c-0.01,0,0,0.01-0.01,0.01c0,0-0.05,0.04-0.14,0.16
		c-0.01,0.02-0.02,0.03-0.04,0.05l0,0c-0.24,0.4-0.21,0.42-0.23,0.58c-0.01,0.14,0.03,0.7-0.29,1.25
		c-1.74,3.01-5.08,8.22-6.81,11.29c-0.03,0.05-0.06,0.1-0.09,0.15c-0.34,0.5-0.88,0.65-0.93,0.67c-0.09,0.05-0.02-0.03-0.19,0.18
		c-0.02,0.04-0.05,0.08-0.08,0.13l0,0.03c-0.03,0.08,0.31,0.44-0.03,1.27c-0.03,0.06-0.06,0.11-0.1,0.16
		c-0.72,0.79-0.89,0.61-0.97,0.82c-0.02,0.03-0.04,0.06-0.06,0.1c-0.05,0.11-0.08,0.17-0.09,0.2c0.02,0.05,0.05,0.14,0.08,0.31
		c0.06,0.25,0.01,0.64-0.13,0.9c-1.36,2.82-2.31,5.43-2.51,7.48c-0.19,2.07,0.24,3.37,1.53,4.29l0.01,0.01
		c1,0.67,2.22,1.13,3.67,1.13c2.29,0,5.18-1.15,8.69-4.45c0.71-0.58,1.25-0.52,1.43-0.64c0.06-0.15,0.14-0.72,0.55-1.41
		c0.04-0.06,0.09-0.12,0.15-0.19l0,0c1.04-1.2,2.12-2.59,3.24-4.2c0.79-1.14,1.6-2.39,2.42-3.75l0,0c0.02-0.03,0.04-0.06,0.06-0.09
		c0.44-0.62,1.08-0.66,1.12-0.69c0.1-0.05,0.06,0.03,0.3-0.27c0.15-0.21,0.18-0.32,0.18-0.35l0-0.02c0.04-0.01-0.39-0.64,0.06-1.46
		c3.69-6.23,5.91-10.38,7.11-13.36c0.03-0.08,0.08-0.18,0.15-0.27c0.14-0.23,0.47-0.43,0.66-0.48c0.03-0.05,0.06-0.13,0.1-0.23
		c-0.18-0.25-0.32-0.79-0.18-1.07c0.64-2.2,0.62-3.57,0.29-5.09c-0.12-0.52-0.46-0.93-1.04-1.34c-0.59-0.41-1.37-0.75-2.07-1.08
		c-0.68-0.33-1.47-0.52-2.34-0.52c-1.76,0-3.89,0.75-6.3,2.54C27.29,7.75,27.01,7.81,26.74,7.81 M24.73,7.13
		C24.73,7.13,24.73,7.13,24.73,7.13L24.73,7.13L24.73,7.13 M39.45,1.49C39.45,1.49,39.45,1.49,39.45,1.49
		c-0.5,0-0.97,0.25-1.26,0.66l-0.84,1.22c-0.06-0.03-0.13-0.06-0.19-0.09C36.1,2.76,34.94,2.5,33.7,2.5c-2.25,0-4.72,0.88-7.15,2.56
		c-0.06-0.01-0.12-0.01-0.18-0.01c-0.54,0-1.1,0.21-1.51,0.55c-0.2,0.14-0.46,0.35-0.69,0.67c-0.27,0.31-0.34,0.7-0.36,1
		c-1.74,1.61-2.99,3.15-4.52,5.21c-0.44,0.17-0.97,0.55-1.31,1.1l-0.06,0.09l0,0c-0.58,0.86-0.64,1.65-0.64,1.88l-0.01,0.16
		c-0.76,1.32-1.84,3.06-2.97,4.9c-1.32,2.15-2.69,4.36-3.66,6.07c-0.06,0.02-0.12,0.06-0.19,0.09c-0.39,0.21-0.76,0.55-1.04,0.96
		c-0.06,0.09-0.13,0.19-0.19,0.3c-0.32,0.52-0.37,1.07-0.35,1.43c-0.25,0.2-0.47,0.43-0.64,0.68c-0.08,0.12-0.16,0.25-0.24,0.4
		c-0.31,0.56-0.44,1.27-0.33,1.82c-1.53,3.25-2.35,5.79-2.58,7.96c-0.33,2.91,0.6,5.27,2.62,6.65c1.47,1.03,3.23,1.58,5.08,1.58
		c3.36,0,6.96-1.75,10.41-5.05c0,0,0,0,0,0c0.01,0,0.05-0.01,0.1-0.02c0.3-0.07,0.86-0.2,1.46-0.74c0.12-0.12,0.2-0.23,0.27-0.33
		c0.36-0.61,0.49-1.1,0.56-1.36c0.01-0.03,0.02-0.06,0.02-0.09l0,0c1.1-1.26,2.25-2.75,3.38-4.38c0.76-1.1,1.54-2.3,2.31-3.57
		c0.1-0.03,0.21-0.07,0.31-0.12c0.48-0.22,0.93-0.62,1.28-1.12c0.61-0.81,0.73-1.77,0.58-2.38c3.51-5.95,5.57-9.8,6.83-12.8
		c0.23-0.13,0.52-0.36,0.7-0.67c0.17-0.26,0.32-0.55,0.47-0.96c0.25-0.53,0.26-1.26,0.03-1.81c0.53-2.05,0.58-3.87,0.15-5.73
		c-0.03-0.12-0.06-0.24-0.1-0.36c0.28,0.33,0.63,0.65,1.05,0.94c0.27,0.19,0.57,0.37,0.9,0.55c0.15,0.08,0.32,0.12,0.48,0.12
		c0.37,0,0.71-0.2,0.89-0.53c0.13-0.24,0.16-0.51,0.08-0.77c-0.08-0.26-0.25-0.47-0.49-0.6c-0.27-0.14-0.51-0.29-0.72-0.44
		c-0.01-0.01-0.02-0.02-0.03-0.02C44,6.13,44.25,5.9,44.46,5.63c0.16-0.23,0.28-0.46,0.37-0.7c0.31-0.76,0.11-1.58-0.49-1.99
		c-0.35-0.19-0.67-0.28-1.02-0.28c-0.76,0-1.55,0.44-2.12,1.17c-0.2,0.29-0.33,0.61-0.39,0.94c-0.2-0.04-0.4-0.1-0.6-0.16l0.5-0.72
		c0.23-0.34,0.32-0.74,0.25-1.14c-0.07-0.4-0.3-0.75-0.63-0.98C40.06,1.58,39.76,1.49,39.45,1.49L39.45,1.49L39.45,1.49z
		 M27.74,7.98c2.13-1.58,4.19-2.42,5.96-2.42c0.77,0,1.49,0.16,2.12,0.47l0.43,0.2c0.56,0.26,1.14,0.54,1.58,0.84
		c0.5,0.35,0.76,0.67,0.84,1.04c0.3,1.36,0.36,2.65-0.27,4.81c-0.14,0.35-0.09,0.8,0.04,1.15c-0.22,0.13-0.44,0.32-0.58,0.54
		c-0.07,0.09-0.13,0.21-0.18,0.35c-1.18,2.92-3.36,7.02-7.08,13.29c-0.41,0.76-0.27,1.4-0.16,1.7c-0.02,0.03-0.04,0.06-0.07,0.1
		c-0.03,0.04-0.05,0.07-0.07,0.09c-0.27,0.06-0.89,0.23-1.35,0.87c-0.03,0.05-0.06,0.08-0.08,0.12l0,0c-0.8,1.33-1.61,2.58-2.4,3.73
		c-1.07,1.54-2.14,2.94-3.2,4.15l0,0c-0.07,0.08-0.13,0.15-0.18,0.23c-0.33,0.55-0.48,1.02-0.55,1.3c-0.3,0.07-0.77,0.19-1.33,0.65
		c-3.07,2.89-5.88,4.34-8.37,4.34c-1.22,0-2.36-0.35-3.39-1.05c-1.11-0.79-1.49-1.9-1.32-3.83c0.18-1.83,1.01-4.29,2.46-7.31
		c0.18-0.34,0.25-0.85,0.17-1.22c-0.01-0.07-0.03-0.12-0.04-0.17l0.03-0.04c0.19-0.1,0.47-0.27,0.92-0.76l0.02-0.02l0.02-0.03
		c0.05-0.07,0.09-0.14,0.13-0.21c0.29-0.69,0.22-1.15,0.14-1.41c0.47-0.19,0.83-0.46,1.07-0.82c0.04-0.05,0.08-0.12,0.11-0.18
		c0.93-1.65,2.34-3.94,3.7-6.16c1.18-1.92,2.3-3.74,3.1-5.13c0.35-0.58,0.36-1.19,0.36-1.42l0.01-0.1c0-0.04,0.02-0.09,0.14-0.29
		l0.03-0.04c0.27-0.08,0.73-0.3,1.03-0.72c1.53-2.07,2.78-3.7,4.88-5.55c0.11-0.1,0.2-0.2,0.28-0.32c0.1-0.13,0.17-0.28,0.22-0.43
		C27.18,8.28,27.51,8.21,27.74,7.98L27.74,7.98z M25.07,7.5L25.07,7.5L25.07,7.5L25.07,7.5z"/>
</g>
<path class="st2" d="M32.67,8.02c0.28-0.06,0.46-0.33,0.4-0.61c-0.06-0.28-0.33-0.46-0.61-0.4c-0.84,0.18-2.19,0.5-3.02,1.57
	c-0.17,0.23-0.13,0.55,0.1,0.72c0.23,0.17,0.55,0.13,0.72-0.1C30.78,8.51,31.89,8.17,32.67,8.02z"/>
<path class="st2" d="M37.18,12.59c0.45-1.13,0.62-2.76,0.49-3.5c-0.06-0.28-0.34-0.45-0.61-0.39c-0.28,0.06-0.45,0.34-0.39,0.61
	c0.09,0.28-0.07,2.08-0.43,2.88c-0.11,0.26,0.01,0.56,0.28,0.67C36.77,12.98,37.07,12.85,37.18,12.59z"/>
<path class="st2" d="M25.38,17.41c0.27,0.09,0.56-0.05,0.66-0.31c0.12-0.34,0.31-0.68,0.53-1c0.49-0.71,1.15-1.31,1.61-1.72
	c0.21-0.19,0.23-0.51,0.04-0.73c-0.19-0.21-0.51-0.23-0.73-0.04c-0.47,0.42-1.19,1.07-1.77,1.9c-0.26,0.37-0.49,0.79-0.65,1.24
	C24.97,17.02,25.11,17.32,25.38,17.41z"/>
<path class="st2" d="M18.6,23.3c0.46-0.67,1.03-1.36,1.45-1.87c0.18-0.22,0.15-0.54-0.07-0.72c-0.22-0.18-0.54-0.15-0.72,0.07
	c-0.41,0.51-1,1.22-1.5,1.93c-0.33,0.48-0.62,0.95-0.81,1.41c-0.11,0.26,0.02,0.56,0.28,0.67c0.26,0.11,0.56-0.02,0.67-0.28
	C18.03,24.18,18.29,23.74,18.6,23.3z"/>
<path class="st2" d="M24.49,26.6c-0.26-0.12-0.56,0-0.68,0.26c-0.1,0.22-0.45,0.81-0.83,1.37c-0.32,0.46-0.67,0.91-0.94,1.19
	c-0.2,0.2-0.2,0.53,0.01,0.73c0.2,0.2,0.53,0.2,0.73-0.01c0.34-0.35,0.71-0.83,1.05-1.32c0.42-0.6,0.77-1.18,0.93-1.54
	C24.87,27.02,24.75,26.71,24.49,26.6z"/>
<path class="st2" d="M33.17,20.56c0.12-0.12,0.22-0.26,0.33-0.41c0.7-1.04,1.4-2.78,1.53-3.43c0.05-0.28-0.14-0.55-0.42-0.6
	c-0.28-0.05-0.55,0.14-0.6,0.42c-0.04,0.33-0.79,2.22-1.36,3.02c-0.08,0.12-0.16,0.22-0.22,0.27c-0.2,0.2-0.2,0.53,0.01,0.73
	C32.64,20.77,32.97,20.76,33.17,20.56z"/>
<path class="st2" d="M17.07,32.58c0.16-0.24,0.1-0.56-0.14-0.71c-0.24-0.16-0.56-0.1-0.71,0.14c-0.58,0.87-1.37,2.35-1.57,3.43
	c-0.05,0.28,0.14,0.55,0.42,0.59c0.28,0.05,0.55-0.14,0.59-0.42C15.79,34.86,16.56,33.32,17.07,32.58z"/>
<path class="st2" d="M11.03,38.75c0.09-0.27-0.05-0.56-0.32-0.65c-0.27-0.09-0.56,0.05-0.65,0.32c-0.34,1.02-0.89,1.82-0.7,3.04
	c0.05,0.28,0.31,0.47,0.59,0.42c0.28-0.05,0.47-0.31,0.42-0.59C10.23,40.52,10.61,39.92,11.03,38.75z"/>
<path class="st2" d="M29.25,27.79c-0.33,0.48-0.66,0.92-0.94,1.3c-0.07,0.09-0.05,0.22,0.04,0.29c0.09,0.07,0.22,0.05,0.29-0.04
	c0.28-0.38,0.61-0.82,0.95-1.31c0.56-0.8,1.13-1.74,1.56-2.77c0.04-0.11-0.01-0.23-0.11-0.27c-0.11-0.04-0.23,0.01-0.27,0.11
	C30.36,26.09,29.8,27,29.25,27.79z"/>
<path class="st2" d="M27.43,31.22c0.06-0.09,0.04-0.22-0.05-0.29c-0.09-0.07-0.22-0.04-0.29,0.05c-0.03,0.05-0.06,0.09-0.09,0.14
	c-0.48,0.69-0.94,1.37-1.41,2.05c-2.4,3.46-4.82,6.72-8.58,9.32c-0.09,0.06-0.12,0.19-0.05,0.29c0.06,0.09,0.19,0.12,0.29,0.05
	c3.82-2.65,6.28-5.96,8.68-9.42c0.47-0.68,0.94-1.36,1.41-2.05C27.37,31.31,27.4,31.27,27.43,31.22z"/>
</svg>
