<?xml version="1.0" encoding="utf-8"?>
<!-- Generator: Adobe Illustrator 26.2.1, SVG Export Plug-In . SVG Version: 6.00 Build 0)  -->
<svg version="1.1" id="Layer_1" xmlns="http://www.w3.org/2000/svg" xmlns:xlink="http://www.w3.org/1999/xlink" x="0px" y="0px"
	 viewBox="0 0 50 50" style="enable-background:new 0 0 50 50;" xml:space="preserve">
<style type="text/css">
	
		.st0{fill-rule:evenodd;clip-rule:evenodd;fill:#020203;stroke:#020203;stroke-width:0.5;stroke-linecap:round;stroke-linejoin:round;stroke-miterlimit:10;}
</style>
<g id="Layer_2_00000078017151866186789420000017661937393225341830_">
</g>
<path class="st0" d="M25.42,16.61c2.71,0,5.41-0.68,7.47-2.05c1.85,0.8,3.52,1.88,4.95,3.17c7.97,7.21,6.83,19.58-3.43,25.3
	c-5.81,3.24-13,3.24-18.81,0c-10.26-5.72-11.4-18.1-3.43-25.3c1.56-1.41,3.42-2.57,5.47-3.39C19.72,15.85,22.58,16.61,25.42,16.61
	 M36.44,7.46c-2.78-0.44-5-0.64-7.63,0.71c-0.39-2.83-1.3-4.27-3.38-6.23c-2.08,1.95-2.99,3.4-3.38,6.23
	c-2.59-1.33-4.83-1.16-7.64-0.71c0.09,1.89,0.15,3.24,1.29,4.91c-1.95,0.9-3.72,2.07-5.26,3.45c-9.13,8.25-7.99,22.41,3.42,29.19
	c6.82,4.05,15.45,4.05,22.28,0.01c11.42-6.77,12.56-20.94,3.43-29.19c-1.37-1.24-2.92-2.3-4.63-3.15
	C36.26,10.94,36.35,9.5,36.44,7.46z M18.98,18.54l-0.89-2.1c-5.24,2.23-9.09,6.86-9.09,12.72h2.28
	C11.28,24.22,14.57,20.41,18.98,18.54z M33.6,9.7c-0.92,2.88-4.55,4.32-8.17,4.32c-3.63,0-7.26-1.44-8.17-4.32
	c3.6-0.1,5.14,1.57,7.59,3.73c-0.34-2.8-0.83-4.91,0.58-7.57c1.4,2.65,1.01,4.69,0.67,7.48C28.55,11.18,30,9.6,33.6,9.7z"/>
<g id="Layer_2_00000047773660422131968270000011467888002781026198_">
</g>
</svg>
